<svg xmlns="http://www.w3.org/2000/svg" width="525" height="190" viewBox="0 0 525 190" version="1.1"><path d="" stroke="none" fill="#b6d7bd" fill-rule="evenodd"/><path d="M 479 87.500 L 479 111 485 111 L 491 111 491 87.500 L 491 64 485 64 L 479 64 479 87.500 M 494 87.500 L 494 111 500.500 111 L 507 111 507 87.500 L 507 64 500.500 64 L 494 64 494 87.500 M 510 87.500 L 510 111 516 111 L 522 111 522 87.500 L 522 64 516 64 L 510 64 510 87.500 M 84.864 70.550 C 84.790 71.623, 84.452 77.900, 84.114 84.500 L 83.500 96.500 75.320 84.384 C 67.785 73.224, 65.700 71, 62.770 71 C 61.309 71, 62.390 103.790, 63.900 105.300 C 65.154 106.554, 65.008 107.646, 65.886 90.500 L 66.500 78.500 69.901 83.500 C 87.576 109.481, 89.529 109.161, 87.574 80.600 C 86.959 71.613, 85.235 65.219, 84.864 70.550 M 434.864 70.550 C 434.790 71.623, 434.452 77.900, 434.114 84.500 L 433.500 96.500 426.182 85.682 C 412.372 65.267, 411.519 65.384, 412.252 87.600 C 412.583 97.603, 413.238 104.638, 413.900 105.300 C 415.154 106.554, 415.008 107.646, 415.886 90.500 L 416.500 78.500 419.901 83.500 C 437.576 109.481, 439.529 109.161, 437.574 80.600 C 436.959 71.613, 435.235 65.219, 434.864 70.550 M 169.730 70.663 C 168.269 73.134, 167.882 79.444, 168.517 90.459 L 169.227 102.764 176.130 103.444 C 183.609 104.181, 188.305 103.441, 185.882 101.906 C 185.122 101.425, 181.975 101.024, 178.888 101.015 L 173.276 101 172.782 86.444 C 172.345 73.578, 171.276 68.050, 169.730 70.663 M 12 72.294 C 4.760 75.956, 6.055 82.168, 15.353 88.378 C 26.699 95.956, 23.098 104.790, 10.601 100.038 C 7.602 98.898, 6.346 100.212, 8.625 102.104 C 9.551 102.873, 12.746 103.448, 16.198 103.467 C 28.612 103.536, 30.831 91.995, 19.502 86.281 C 8.733 80.848, 9.452 72.361, 20.507 74.435 C 23.173 74.936, 24 74.753, 24 73.662 C 24 71.008, 16.282 70.128, 12 72.294 M 97 87.500 L 97 104.286 104.846 103.748 C 118.135 102.837, 122.398 99.156, 122.343 88.639 C 122.278 76.174, 118.249 72.171, 104.846 71.252 L 97 70.714 97 87.500 M 128.117 73.250 C 128.770 74.487, 131.035 78.063, 133.152 81.195 C 136.739 86.504, 137.001 87.386, 137.015 94.195 C 137.032 102.118, 138.231 105.672, 139.985 103 C 140.526 102.175, 140.976 98.311, 140.985 94.414 C 140.999 87.727, 141.253 86.937, 145.479 80.414 C 152.393 69.739, 150.858 66.854, 143.702 77.075 C 138.921 83.903, 139.058 83.879, 135.650 78.484 C 131.787 72.371, 125.260 67.835, 128.117 73.250 M 199.525 73.321 C 197.492 76.425, 189 99.614, 189 102.063 C 189 105.354, 191.081 104.204, 192.732 100 L 194.303 96 201.586 96 L 208.868 96 211.351 101.250 C 217.439 114.125, 213.526 97.496, 204.997 74.250 C 203.593 70.424, 201.641 70.093, 199.525 73.321 M 221.478 77.359 C 220.668 84.926, 221.186 102.523, 222.250 103.585 C 223.895 105.227, 224.522 102.317, 225 90.808 L 225.500 78.778 233.232 90.251 C 242.050 103.336, 243.693 105.098, 245.061 102.936 C 246.374 100.860, 246.259 72.278, 244.933 71.459 C 242.943 70.229, 242.501 72.140, 242 84.138 L 241.500 96.119 233.230 83.559 C 223.655 69.017, 222.440 68.377, 221.478 77.359 M 257.385 71.694 C 255.217 73.261, 254.798 77.377, 255.507 90.118 L 256.223 103 264.161 103 C 277.125 103, 280.502 99.682, 280.498 86.953 C 280.494 75.438, 265.707 65.676, 257.385 71.694 M 290.763 72.565 C 285.353 75.500, 286.005 82.840, 292.013 86.648 C 305.419 95.145, 305.574 101.937, 292.330 100.519 C 285.706 99.809, 284.083 100.805, 288.547 102.839 C 303.662 109.727, 312.100 93.906, 297.726 85.629 C 287.915 79.980, 289.017 72.876, 299.461 74.442 C 304.255 75.161, 305.594 73.923, 302.066 72.035 C 299.328 70.570, 293.978 70.821, 290.763 72.565 M 320.333 72.097 C 311.462 74.665, 308.143 88.951, 314.147 98.720 C 317.075 103.484, 324.279 105.161, 332.276 102.940 C 338.202 101.295, 335.744 99.761, 328.434 100.544 C 320.524 101.391, 316.645 98.481, 315.499 90.841 C 313.806 79.554, 318.762 73.414, 328.750 74.424 C 332.644 74.817, 335 74.681, 335 74.063 C 335 71.272, 326.922 70.190, 320.333 72.097 M 371.181 86.919 C 371.357 95.675, 371.862 103.200, 372.304 103.640 C 373.760 105.091, 374.969 101.595, 374.985 95.890 L 375 90.280 380.691 89.692 C 399.473 87.754, 396.361 71.228, 377.181 71.056 L 370.862 71 371.181 86.919 M 399.461 74.358 C 397.841 82.991, 399.620 105.708, 401.750 103.586 C 403.806 101.538, 403.103 71, 401 71 C 400.500 71, 399.807 72.511, 399.461 74.358 M 454.313 72.102 C 443.218 75.313, 442.051 97.475, 452.711 102.533 C 462.874 107.356, 469.962 103.729, 469.985 93.695 L 470 86.890 465.250 87.195 C 459.833 87.543, 458.375 90.256, 463.302 90.821 C 465.977 91.128, 466.090 91.355, 465.802 95.821 L 465.500 100.500 460.311 100.461 C 453.706 100.410, 451.471 98.465, 449.888 91.389 C 447.309 79.867, 452.229 73.390, 462.823 74.360 C 467.480 74.786, 469.041 74.624, 468.749 73.747 C 467.941 71.323, 460.095 70.430, 454.313 72.102 M 348.901 74.595 C 345.242 83.707, 339.149 102.433, 339.605 103.169 C 340.463 104.557, 342.097 103.013, 343.615 99.378 L 345.027 96 352.513 96 C 358.373 96, 360 96.314, 360 97.444 C 360 99.378, 364.640 104.689, 365.543 103.788 C 367.741 101.596, 358.384 79.614, 353.116 74.595 L 350.068 71.691 348.901 74.595 M 35.204 87.250 C 32.332 95.088, 29.987 102.100, 29.992 102.833 C 30.007 105.240, 32.464 103.464, 34.332 99.696 L 36.165 96 43.582 96 C 49.382 96, 51 96.315, 51 97.444 C 51 99.422, 55.650 104.679, 56.579 103.752 C 59.562 100.777, 46.052 73, 41.623 73 C 40.964 73, 38.075 79.412, 35.204 87.250 M 101 88 L 101 101 105.984 101 C 113.585 101, 117.201 97.371, 117.796 89.146 C 118.566 78.504, 115.632 75, 105.953 75 L 101 75 101 88 M 260 88.127 L 260 101.254 265.188 100.756 C 281.695 99.170, 281.580 75, 265.066 75 L 260 75 260 88.127 M 375 80.500 L 375 86 380.300 86 C 386.390 86, 388 84.850, 388 80.500 C 388 76.150, 386.390 75, 380.300 75 L 375 75 375 80.500 M 42.641 77 C 36.981 91.829, 36.998 92, 44.126 92 C 49.820 92, 49.724 92.740, 45.480 81.500 C 44.081 77.795, 42.995 76.074, 42.641 77 M 351.479 77.250 C 348.663 84.939, 347.126 90.395, 347.573 91.117 C 348.473 92.574, 358.295 92.220, 357.753 90.750 C 357.500 90.063, 356.290 86.463, 355.065 82.750 C 352.785 75.842, 352.279 75.066, 351.479 77.250 M 200.509 78.250 C 200.273 78.938, 199.162 81.975, 198.040 85 C 195.344 92.273, 195.209 92, 201.500 92 C 204.525 92, 207 91.694, 207 91.321 C 207 86.372, 201.512 75.322, 200.509 78.250" stroke="none" fill="#60ad6f" fill-rule="evenodd"/></svg>